<?xml version="1.0" standalone="no"?>
<!DOCTYPE svg PUBLIC "-//W3C//DTD SVG 20010904//EN"
 "http://www.w3.org/TR/2001/REC-SVG-20010904/DTD/svg10.dtd">
<svg version="1.0" xmlns="http://www.w3.org/2000/svg"
 width="225.000000pt" height="225.000000pt" viewBox="0 0 225.000000 225.000000"
 preserveAspectRatio="xMidYMid meet">
<metadata>
Created by potrace 1.15, written by Peter Selinger 2001-2017
</metadata>
<g transform="translate(0.000000,225.000000) scale(0.100000,-0.100000)"
fill="#000000" stroke="none">
<path d="M370 2128 c203 -230 337 -491 439 -853 94 -332 123 -549 157 -1167
l6 -108 159 0 160 0 -6 103 c-29 489 -67 726 -169 1037 -140 431 -387 798
-671 1002 -46 33 -146 88 -160 88 -3 0 35 -46 85 -102z"/>
<path d="M1836 1835 c-195 -80 -385 -300 -509 -588 l-36 -83 34 -127 c18 -70
39 -162 46 -205 l13 -77 17 97 c34 188 104 410 177 558 77 159 139 247 266
378 39 39 66 72 61 72 -6 0 -37 -11 -69 -25z"/>
<path d="M11 1443 c0 -5 22 -35 49 -68 75 -91 193 -270 238 -361 139 -277 221
-631 222 -951 l0 -63 166 0 167 0 -7 101 c-19 272 -110 562 -246 784 -133 217
-332 425 -506 530 -56 34 -85 43 -83 28z"/>
<path d="M2164 1419 c-194 -123 -411 -404 -532 -689 -42 -100 -93 -267 -111
-360 -11 -61 -28 -211 -35 -307 l-4 -63 163 0 163 0 7 128 c18 350 87 658 207
926 44 96 80 162 164 296 30 47 54 89 54 93 0 15 -28 6 -76 -24z"/>
</g>
</svg>
